<?xml version="1.0" standalone="no"?>
<!DOCTYPE svg PUBLIC "-//W3C//DTD SVG 20010904//EN"
 "http://www.w3.org/TR/2001/REC-SVG-20010904/DTD/svg10.dtd">
<svg version="1.0" xmlns="http://www.w3.org/2000/svg"
 width="1744.000000pt" height="1744.000000pt" viewBox="0 0 1744.000000 1744.000000"
 preserveAspectRatio="xMidYMid meet">
<metadata>
Created by potrace 1.11, written by Peter Selinger 2001-2013
</metadata>
<g transform="translate(0.000000,1744.000000) scale(0.100000,-0.100000)"
fill="#000000" stroke="none">
<path d="M1296 12763 c-2 -3 -23 -5 -186 -18 -104 -9 -147 -13 -189 -20 -20
-3 -54 -8 -76 -10 -22 -3 -51 -7 -65 -10 -14 -3 -45 -8 -70 -11 -25 -3 -56 -8
-70 -10 -14 -3 -38 -7 -55 -10 -16 -2 -41 -6 -55 -10 -14 -3 -36 -8 -50 -10
-291 -50 -442 -125 -468 -231 -13 -54 -4 -267 13 -333 2 -8 7 -31 10 -50 3
-19 10 -56 16 -81 6 -26 11 -53 12 -60 2 -8 6 -20 10 -26 5 -7 6 -13 3 -13 -3
0 2 -16 10 -35 8 -19 12 -35 9 -35 -4 0 16 -60 42 -130 3 -8 7 -19 9 -25 8
-32 83 -206 131 -305 93 -192 272 -481 390 -630 181 -228 252 -308 438 -495
142 -141 216 -210 295 -275 24 -19 48 -40 54 -46 24 -23 215 -174 220 -174 5
0 29 -18 60 -45 6 -5 40 -30 76 -55 36 -24 67 -48 68 -52 2 -4 9 -8 16 -8 7 0
21 -8 32 -17 28 -26 102 -73 114 -73 5 0 10 -4 10 -10 0 -5 11 -12 25 -16 14
-3 25 -9 25 -13 0 -4 17 -16 38 -27 58 -32 87 -49 92 -55 16 -17 498 -268 535
-278 6 -2 28 -11 51 -21 22 -11 65 -29 95 -40 30 -12 68 -27 84 -35 17 -7 55
-22 85 -33 30 -11 87 -32 126 -46 39 -15 79 -28 90 -31 10 -2 38 -10 62 -19
23 -8 42 -13 42 -9 0 3 6 1 13 -4 14 -11 87 -33 227 -68 8 -2 15 -4 15 -5 0
-1 11 -3 25 -5 14 -2 45 -8 70 -15 87 -21 123 -29 170 -36 19 -2 55 -9 80 -15
25 -5 61 -11 80 -14 72 -8 136 -16 165 -22 34 -6 55 -8 145 -17 36 -3 76 -8
90 -11 14 -2 57 -7 95 -10 39 -3 88 -7 110 -9 269 -27 623 -52 884 -61 129 -5
579 -5 641 0 149 11 192 19 264 45 146 55 168 183 84 485 -17 61 -34 115 -38
120 -4 6 -10 23 -14 39 -4 16 -23 70 -42 120 -36 91 -44 112 -83 198 -12 26
-21 49 -21 52 0 13 -199 420 -260 531 -15 28 -43 79 -61 115 -19 36 -37 67
-40 70 -4 3 -18 28 -33 55 -14 28 -40 73 -56 100 -17 28 -33 58 -37 68 -3 9
-9 17 -14 17 -5 0 -9 7 -9 15 0 8 -4 15 -8 15 -5 0 -14 12 -21 28 -14 31 -90
151 -108 170 -6 6 -15 21 -18 32 -3 11 -11 20 -16 20 -5 0 -9 6 -9 13 0 10
-36 62 -104 152 -186 244 -186 245 -351 410 -143 143 -264 246 -435 370 -41
30 -80 59 -87 65 -7 5 -24 15 -38 22 -14 6 -25 15 -25 20 0 4 -7 8 -15 8 -8 0
-15 5 -15 10 0 6 -5 10 -11 10 -6 0 -29 13 -52 28 -105 71 -477 272 -504 272
-6 0 -13 4 -15 8 -1 4 -43 25 -93 46 -49 22 -106 46 -125 54 -19 9 -37 16 -40
16 -3 1 -24 8 -45 18 -129 53 -413 151 -540 184 -33 9 -64 17 -70 19 -5 1 -13
3 -17 4 -4 1 -22 7 -40 12 -18 6 -44 12 -58 15 -14 3 -33 7 -42 10 -9 3 -25 7
-35 9 -48 11 -160 36 -178 41 -11 2 -33 6 -50 9 -16 2 -41 6 -55 9 -32 8 -77
16 -115 22 -16 3 -41 7 -55 9 -14 3 -43 7 -65 10 -22 2 -56 7 -75 10 -19 3
-53 7 -75 10 -22 2 -58 6 -80 9 -43 6 -165 16 -255 21 -30 2 -55 4 -55 5 0 3
-556 6 -559 3z"/>
<path d="M15516 12762 c-3 -3 -36 -6 -73 -8 -38 -1 -90 -5 -118 -8 -27 -3 -77
-8 -110 -12 -89 -10 -107 -12 -145 -18 -19 -3 -53 -8 -75 -11 -109 -16 -148
-22 -185 -30 -14 -3 -39 -7 -56 -9 -16 -2 -39 -6 -50 -9 -10 -4 -30 -8 -44
-11 -14 -3 -38 -8 -55 -11 -16 -3 -66 -15 -109 -25 -44 -10 -83 -17 -87 -14
-4 2 -10 0 -13 -5 -4 -5 -24 -12 -46 -16 -22 -4 -42 -11 -46 -16 -3 -5 -9 -7
-13 -4 -7 4 -151 -38 -381 -112 -30 -10 -58 -22 -62 -28 -4 -5 -8 -7 -8 -2 0
4 -13 1 -30 -8 -16 -8 -32 -15 -35 -15 -8 0 -25 -5 -45 -13 -27 -11 -75 -30
-80 -32 -3 0 -16 -7 -30 -15 -14 -7 -27 -13 -30 -13 -6 0 -40 -13 -90 -35 -19
-9 -42 -17 -50 -18 -8 -2 -16 -8 -18 -13 -2 -6 -10 -11 -18 -11 -24 0 -425
-207 -432 -222 -2 -5 -8 -8 -13 -8 -11 0 -251 -148 -259 -160 -3 -4 -16 -13
-29 -20 -14 -7 -30 -17 -35 -22 -6 -5 -45 -33 -86 -64 -41 -30 -84 -62 -95
-72 -11 -9 -31 -26 -46 -37 -91 -69 -330 -301 -414 -400 -22 -26 -45 -53 -50
-59 -48 -51 -295 -398 -295 -414 0 -6 -3 -12 -8 -14 -7 -3 -62 -85 -87 -130
-5 -10 -34 -56 -62 -102 -29 -47 -53 -89 -53 -95 0 -5 -6 -16 -13 -23 -37 -37
-321 -592 -414 -808 -8 -19 -21 -47 -29 -62 -8 -15 -14 -29 -14 -30 1 -2 -3
-14 -8 -28 -50 -127 -84 -218 -87 -230 -2 -8 -15 -49 -30 -90 -14 -41 -28 -86
-31 -100 -7 -36 -12 -55 -14 -55 -3 0 -21 -92 -24 -126 -2 -14 -5 -30 -8 -35
-9 -17 -1 -149 11 -186 23 -70 91 -110 211 -125 59 -6 480 -10 480 -3 0 3 24
5 53 6 68 1 369 17 497 27 25 2 51 6 57 10 6 4 14 3 18 -3 4 -6 10 -8 15 -5 5
3 37 8 72 10 35 3 88 7 118 10 30 3 87 7 125 10 39 2 84 6 100 9 28 4 55 8
185 21 30 3 71 8 90 10 19 3 53 7 75 9 22 3 57 8 78 11 20 3 53 7 72 10 19 3
51 7 70 10 19 3 52 8 73 11 20 3 51 7 67 9 17 3 47 7 68 11 20 3 47 7 60 9 12
2 42 7 67 11 25 4 53 8 63 8 9 0 17 4 17 9 0 4 4 6 8 3 4 -2 53 4 107 15 55
11 111 22 125 25 40 7 73 14 100 20 14 3 34 7 45 9 15 3 159 39 270 69 58 15
120 38 133 48 8 7 16 11 16 9 1 -6 71 18 126 42 25 11 50 21 55 23 48 11 525
252 545 275 3 3 20 12 38 20 17 8 32 17 32 21 0 5 9 8 19 8 11 0 21 4 23 8 2
5 32 26 68 48 36 21 67 42 68 47 2 4 8 7 13 7 12 0 193 121 197 132 2 4 8 8
13 8 11 0 191 130 243 175 6 6 36 29 68 52 31 23 68 53 82 65 14 13 40 34 57
48 18 14 47 39 65 55 18 17 63 57 100 90 68 59 317 305 309 305 -2 0 12 16 31
36 19 19 71 81 115 137 44 56 87 110 95 120 8 9 14 22 14 27 0 6 5 10 10 10 6
0 10 6 10 14 0 8 3 16 8 18 10 4 82 116 82 128 0 5 4 10 8 10 4 0 19 22 33 50
13 27 27 50 32 50 4 0 7 4 7 9 0 5 19 42 42 83 61 108 258 507 258 524 0 3 8
24 19 47 40 89 119 291 126 322 2 11 11 39 20 63 8 24 16 51 18 60 1 9 5 22 8
27 7 11 18 56 25 95 3 14 7 32 11 40 15 39 23 216 12 257 -7 24 -21 39 -51 54
-35 18 -123 52 -150 58 -4 1 -13 3 -20 5 -12 4 -77 19 -138 32 -14 3 -34 7
-45 9 -11 3 -31 7 -45 10 -14 2 -36 7 -50 10 -54 10 -87 16 -145 25 -33 6 -71
12 -85 15 -26 5 -103 14 -158 20 -18 1 -51 6 -75 9 -44 6 -125 15 -217 23 -78
6 -728 11 -734 5z"/>
<path d="M7507 6384 c-1 -1 -29 -4 -62 -7 -308 -30 -425 -218 -304 -486 27
-58 84 -157 99 -171 3 -3 21 -25 40 -50 40 -52 128 -147 185 -199 21 -20 50
-47 63 -59 14 -13 54 -47 91 -75 36 -28 68 -54 71 -58 5 -6 113 -82 158 -111
15 -10 38 -25 50 -35 13 -10 39 -27 57 -38 111 -67 178 -105 186 -105 5 0 9
-5 9 -12 0 -6 3 -8 6 -5 4 4 19 -2 33 -12 23 -15 108 -58 262 -130 25 -11 51
-21 57 -21 7 0 12 -5 12 -12 0 -6 3 -9 6 -5 3 3 29 -4 58 -17 149 -65 324
-106 435 -101 90 4 147 15 221 42 8 4 20 7 25 8 6 1 13 3 18 5 4 1 10 3 15 5
4 1 20 7 35 13 16 7 30 12 32 12 2 0 39 16 82 36 43 21 84 38 92 40 8 1 17 6
20 11 3 4 33 22 66 38 33 16 62 33 63 37 2 4 7 8 12 8 5 0 32 16 61 35 30 19
59 35 65 35 7 0 14 3 16 8 2 4 23 20 48 37 25 16 61 41 80 56 19 14 62 45 95
70 83 61 83 61 174 137 92 77 299 290 354 365 65 88 122 187 133 232 9 36 10
138 2 181 -16 84 -78 171 -138 193 -14 5 -34 12 -45 16 -28 11 -70 16 -142 18
-35 1 -63 6 -63 10 0 5 -5 5 -11 2 -6 -4 -47 -9 -92 -10 -109 -4 -289 -15
-357 -21 -30 -3 -107 -7 -170 -10 -63 -2 -178 -7 -255 -11 -179 -8 -779 -9
-910 0 -213 13 -251 17 -370 33 -22 3 -53 7 -70 8 -32 3 -117 16 -150 23 -49
10 -62 13 -95 17 -19 2 -44 7 -55 9 -44 11 -290 28 -298 21z"/>
</g>
</svg>
